<?xml version="1.0" encoding="us-ascii" standalone="no"?><svg xmlns="http://www.w3.org/2000/svg" xmlns:xlink="http://www.w3.org/1999/xlink" contentStyleType="text/css" height="417px" preserveAspectRatio="none" style="width:1077px;height:417px;background:#FFFFFF;" version="1.1" viewBox="0 0 1077 417" width="1077px" zoomAndPan="magnify"><defs/><g><!--cluster dart_composite--><g id="cluster_dart_composite"><path d="M8.5,6 L136.5,6 A3.75,3.75 0 0 1 139,8.5 L146,28.2969 L1067.5,28.2969 A2.5,2.5 0 0 1 1070,30.7969 L1070,407.5 A2.5,2.5 0 0 1 1067.5,410 L8.5,410 A2.5,2.5 0 0 1 6,407.5 L6,8.5 A2.5,2.5 0 0 1 8.5,6 " fill="none" style="stroke:#000000;stroke-width:1.5;"/><line style="stroke:#000000;stroke-width:1.5;" x1="6" x2="146" y1="28.2969" y2="28.2969"/><text fill="#000000" font-family="sans-serif" font-size="14" font-weight="bold" lengthAdjust="spacing" textLength="127" x="10" y="20.9951">dart_composite</text></g><!--cluster composite_weather.dart--><g id="cluster_composite_weather.dart"><path d="M32.5,49 L231.5,49 A3.75,3.75 0 0 1 234,51.5 L241,71.2969 L1043.5,71.2969 A2.5,2.5 0 0 1 1046,73.7969 L1046,383.5 A2.5,2.5 0 0 1 1043.5,386 L32.5,386 A2.5,2.5 0 0 1 30,383.5 L30,51.5 A2.5,2.5 0 0 1 32.5,49 " fill="none" style="stroke:#000000;stroke-width:1.5;"/><line style="stroke:#000000;stroke-width:1.5;" x1="30" x2="241" y1="71.2969" y2="71.2969"/><text fill="#000000" font-family="sans-serif" font-size="14" font-weight="bold" lengthAdjust="spacing" textLength="198" x="34" y="63.9951">composite_weather.dart</text></g><!--class WeatherComponent--><g id="elem_WeatherComponent"><rect codeLine="3" fill="#F1F1F1" height="96.8906" id="WeatherComponent" rx="2.5" ry="2.5" style="stroke:#181818;stroke-width:0.5;" width="176" x="567" y="84"/><ellipse cx="582" cy="100" fill="#A9DCDF" rx="11" ry="11" style="stroke:#181818;stroke-width:1.0;"/><path d="M584.0781,101.8125 L584.4688,102.7969 L584.0781,102.7969 C583.625,102.7969 583.5156,102.8125 583.3594,102.9219 C583.1094,103.0781 582.9531,103.3594 582.9531,103.6563 C582.9531,103.9219 583.0938,104.1719 583.3125,104.3281 C583.4531,104.4531 583.6563,104.5 584.0781,104.5 L586.4375,104.5 C586.7969,104.5 587.0156,104.4688 587.1563,104.375 C587.4063,104.2344 587.5625,103.9375 587.5625,103.6563 C587.5625,103.375 587.4219,103.125 587.2031,102.9688 C587.0313,102.8281 586.875,102.7969 586.4063,102.7969 L583.0156,94.5938 L579.3438,94.5938 C578.8906,94.5938 578.7656,94.6094 578.6094,94.7031 C578.3594,94.875 578.2031,95.1563 578.2031,95.4375 C578.2031,95.7188 578.3438,95.9688 578.5625,96.1406 C578.7344,96.25 578.9063,96.2813 579.3438,96.2813 L580.4219,96.2813 L577.7813,102.7969 C577.3594,102.7969 577.2031,102.8125 577.0469,102.9219 C576.7969,103.0781 576.6406,103.3594 576.6406,103.6563 C576.6406,104.2188 577.0156,104.5 577.7656,104.5 L580.0313,104.5 C580.3906,104.5 580.6094,104.4688 580.7344,104.375 C581,104.2344 581.1406,103.9375 581.1406,103.6563 C581.1406,103.375 581.0156,103.125 580.7969,102.9531 C580.625,102.8281 580.4844,102.7969 580.0313,102.7969 L579.6406,102.7969 L580.0313,101.8125 L584.0781,101.8125 Z M583.375,100.1094 L580.7031,100.1094 L582.0469,96.8438 L583.375,100.1094 Z " fill="#000000"/><text fill="#000000" font-family="sans-serif" font-size="14" font-style="italic" lengthAdjust="spacing" textLength="144" x="596" y="104.8467">WeatherComponent</text><line style="stroke:#181818;stroke-width:0.5;" x1="568" x2="742" y1="116" y2="116"/><line style="stroke:#181818;stroke-width:0.5;" x1="568" x2="742" y1="124" y2="124"/><ellipse cx="578" cy="137.6484" fill="#84BE84" rx="3" ry="3" style="stroke:#038048;stroke-width:1.0;"/><text fill="#000000" font-family="sans-serif" font-size="14" lengthAdjust="spacing" textLength="70" x="587" y="140.9951">void add()</text><ellipse cx="578" cy="153.9453" fill="#84BE84" rx="3" ry="3" style="stroke:#038048;stroke-width:1.0;"/><text fill="#000000" font-family="sans-serif" font-size="14" lengthAdjust="spacing" textLength="99" x="587" y="157.292">void remove()</text><ellipse cx="578" cy="170.2422" fill="#84BE84" rx="3" ry="3" style="stroke:#038048;stroke-width:1.0;"/><text fill="#000000" font-family="sans-serif" font-size="14" lengthAdjust="spacing" textLength="94" x="587" y="173.5889">void display()</text></g><!--class WeatherStation--><g id="elem_WeatherStation"><rect codeLine="9" fill="#F1F1F1" height="129.4844" id="WeatherStation" rx="2.5" ry="2.5" style="stroke:#181818;stroke-width:0.5;" width="385" x="46.5" y="241"/><ellipse cx="177.25" cy="257" fill="#ADD1B2" rx="11" ry="11" style="stroke:#181818;stroke-width:1.0;"/><path d="M179.5938,252.6719 C178.6563,252.2344 178.0625,252.0938 177.1875,252.0938 C174.5625,252.0938 172.5625,254.1719 172.5625,256.8906 L172.5625,258.0156 C172.5625,260.5938 174.6719,262.4844 177.5625,262.4844 C178.7813,262.4844 179.9375,262.1875 180.6875,261.6406 C181.2656,261.2344 181.5938,260.7813 181.5938,260.3906 C181.5938,259.9375 181.2031,259.5469 180.7344,259.5469 C180.5156,259.5469 180.3125,259.625 180.125,259.8125 C179.6719,260.2969 179.6719,260.2969 179.4844,260.3906 C179.0625,260.6563 178.375,260.7813 177.6094,260.7813 C175.5625,260.7813 174.2656,259.6875 174.2656,257.9844 L174.2656,256.8906 C174.2656,255.1094 175.5156,253.7969 177.25,253.7969 C177.8281,253.7969 178.4375,253.9531 178.9063,254.2031 C179.3906,254.4844 179.5625,254.7031 179.6563,255.1094 C179.7188,255.5156 179.75,255.6406 179.8906,255.7656 C180.0313,255.9063 180.2656,256.0156 180.4844,256.0156 C180.75,256.0156 181.0156,255.875 181.1875,255.6563 C181.2969,255.5 181.3281,255.3125 181.3281,254.8906 L181.3281,253.4688 C181.3281,253.0313 181.3125,252.9063 181.2188,252.75 C181.0625,252.4844 180.7813,252.3438 180.4844,252.3438 C180.1875,252.3438 179.9844,252.4375 179.7656,252.75 L179.5938,252.6719 Z " fill="#000000"/><text fill="#000000" font-family="sans-serif" font-size="14" lengthAdjust="spacing" textLength="115" x="197.75" y="261.8467">WeatherStation</text><line style="stroke:#181818;stroke-width:0.5;" x1="47.5" x2="430.5" y1="273" y2="273"/><rect fill="none" height="6" style="stroke:#C82930;stroke-width:1.0;" width="6" x="54.5" y="283.6484"/><text fill="#000000" font-family="sans-serif" font-size="14" lengthAdjust="spacing" textLength="95" x="66.5" y="289.9951">String _name</text><rect fill="none" height="6" style="stroke:#C82930;stroke-width:1.0;" width="6" x="54.5" y="299.9453"/><text fill="#000000" font-family="sans-serif" font-size="14" lengthAdjust="spacing" textLength="359" x="66.5" y="306.292">List&lt;WeatherComponent&gt; _weatherComponents</text><line style="stroke:#181818;stroke-width:0.5;" x1="47.5" x2="430.5" y1="313.5938" y2="313.5938"/><ellipse cx="57.5" cy="327.2422" fill="#84BE84" rx="3" ry="3" style="stroke:#038048;stroke-width:1.0;"/><text fill="#000000" font-family="sans-serif" font-size="14" lengthAdjust="spacing" textLength="70" x="66.5" y="330.5889">void add()</text><ellipse cx="57.5" cy="343.5391" fill="#84BE84" rx="3" ry="3" style="stroke:#038048;stroke-width:1.0;"/><text fill="#000000" font-family="sans-serif" font-size="14" lengthAdjust="spacing" textLength="99" x="66.5" y="346.8857">void remove()</text><ellipse cx="57.5" cy="359.8359" fill="#84BE84" rx="3" ry="3" style="stroke:#038048;stroke-width:1.0;"/><text fill="#000000" font-family="sans-serif" font-size="14" lengthAdjust="spacing" textLength="94" x="66.5" y="363.1826">void display()</text></g><!--class Temperature--><g id="elem_Temperature"><rect codeLine="19" fill="#F1F1F1" height="113.1875" id="Temperature" rx="2.5" ry="2.5" style="stroke:#181818;stroke-width:0.5;" width="179" x="466.5" y="249"/><ellipse cx="504.9" cy="265" fill="#ADD1B2" rx="11" ry="11" style="stroke:#181818;stroke-width:1.0;"/><path d="M507.2438,260.6719 C506.3063,260.2344 505.7125,260.0938 504.8375,260.0938 C502.2125,260.0938 500.2125,262.1719 500.2125,264.8906 L500.2125,266.0156 C500.2125,268.5938 502.3219,270.4844 505.2125,270.4844 C506.4313,270.4844 507.5875,270.1875 508.3375,269.6406 C508.9156,269.2344 509.2438,268.7813 509.2438,268.3906 C509.2438,267.9375 508.8531,267.5469 508.3844,267.5469 C508.1656,267.5469 507.9625,267.625 507.775,267.8125 C507.3219,268.2969 507.3219,268.2969 507.1344,268.3906 C506.7125,268.6563 506.025,268.7813 505.2594,268.7813 C503.2125,268.7813 501.9156,267.6875 501.9156,265.9844 L501.9156,264.8906 C501.9156,263.1094 503.1656,261.7969 504.9,261.7969 C505.4781,261.7969 506.0875,261.9531 506.5563,262.2031 C507.0406,262.4844 507.2125,262.7031 507.3063,263.1094 C507.3688,263.5156 507.4,263.6406 507.5406,263.7656 C507.6813,263.9063 507.9156,264.0156 508.1344,264.0156 C508.4,264.0156 508.6656,263.875 508.8375,263.6563 C508.9469,263.5 508.9781,263.3125 508.9781,262.8906 L508.9781,261.4688 C508.9781,261.0313 508.9625,260.9063 508.8688,260.75 C508.7125,260.4844 508.4313,260.3438 508.1344,260.3438 C507.8375,260.3438 507.6344,260.4375 507.4156,260.75 L507.2438,260.6719 Z " fill="#000000"/><text fill="#000000" font-family="sans-serif" font-size="14" lengthAdjust="spacing" textLength="95" x="524.1" y="269.8467">Temperature</text><line style="stroke:#181818;stroke-width:0.5;" x1="467.5" x2="644.5" y1="281" y2="281"/><rect fill="none" height="6" style="stroke:#C82930;stroke-width:1.0;" width="6" x="474.5" y="291.6484"/><text fill="#000000" font-family="sans-serif" font-size="14" lengthAdjust="spacing" textLength="153" x="486.5" y="297.9951">double _temperature</text><line style="stroke:#181818;stroke-width:0.5;" x1="467.5" x2="644.5" y1="305.2969" y2="305.2969"/><ellipse cx="477.5" cy="318.9453" fill="#84BE84" rx="3" ry="3" style="stroke:#038048;stroke-width:1.0;"/><text fill="#000000" font-family="sans-serif" font-size="14" lengthAdjust="spacing" textLength="70" x="486.5" y="322.292">void add()</text><ellipse cx="477.5" cy="335.2422" fill="#84BE84" rx="3" ry="3" style="stroke:#038048;stroke-width:1.0;"/><text fill="#000000" font-family="sans-serif" font-size="14" lengthAdjust="spacing" textLength="99" x="486.5" y="338.5889">void remove()</text><ellipse cx="477.5" cy="351.5391" fill="#84BE84" rx="3" ry="3" style="stroke:#038048;stroke-width:1.0;"/><text fill="#000000" font-family="sans-serif" font-size="14" lengthAdjust="spacing" textLength="94" x="486.5" y="354.8857">void display()</text></g><!--class Humidity--><g id="elem_Humidity"><rect codeLine="28" fill="#F1F1F1" height="113.1875" id="Humidity" rx="2.5" ry="2.5" style="stroke:#181818;stroke-width:0.5;" width="149" x="680.5" y="249"/><ellipse cx="719.35" cy="265" fill="#ADD1B2" rx="11" ry="11" style="stroke:#181818;stroke-width:1.0;"/><path d="M721.6938,260.6719 C720.7563,260.2344 720.1625,260.0938 719.2875,260.0938 C716.6625,260.0938 714.6625,262.1719 714.6625,264.8906 L714.6625,266.0156 C714.6625,268.5938 716.7719,270.4844 719.6625,270.4844 C720.8813,270.4844 722.0375,270.1875 722.7875,269.6406 C723.3656,269.2344 723.6938,268.7813 723.6938,268.3906 C723.6938,267.9375 723.3031,267.5469 722.8344,267.5469 C722.6156,267.5469 722.4125,267.625 722.225,267.8125 C721.7719,268.2969 721.7719,268.2969 721.5844,268.3906 C721.1625,268.6563 720.475,268.7813 719.7094,268.7813 C717.6625,268.7813 716.3656,267.6875 716.3656,265.9844 L716.3656,264.8906 C716.3656,263.1094 717.6156,261.7969 719.35,261.7969 C719.9281,261.7969 720.5375,261.9531 721.0063,262.2031 C721.4906,262.4844 721.6625,262.7031 721.7563,263.1094 C721.8188,263.5156 721.85,263.6406 721.9906,263.7656 C722.1313,263.9063 722.3656,264.0156 722.5844,264.0156 C722.85,264.0156 723.1156,263.875 723.2875,263.6563 C723.3969,263.5 723.4281,263.3125 723.4281,262.8906 L723.4281,261.4688 C723.4281,261.0313 723.4125,260.9063 723.3188,260.75 C723.1625,260.4844 722.8813,260.3438 722.5844,260.3438 C722.2875,260.3438 722.0844,260.4375 721.8656,260.75 L721.6938,260.6719 Z " fill="#000000"/><text fill="#000000" font-family="sans-serif" font-size="14" lengthAdjust="spacing" textLength="64" x="738.65" y="269.8467">Humidity</text><line style="stroke:#181818;stroke-width:0.5;" x1="681.5" x2="828.5" y1="281" y2="281"/><rect fill="none" height="6" style="stroke:#C82930;stroke-width:1.0;" width="6" x="688.5" y="291.6484"/><text fill="#000000" font-family="sans-serif" font-size="14" lengthAdjust="spacing" textLength="123" x="700.5" y="297.9951">double _humidity</text><line style="stroke:#181818;stroke-width:0.5;" x1="681.5" x2="828.5" y1="305.2969" y2="305.2969"/><ellipse cx="691.5" cy="318.9453" fill="#84BE84" rx="3" ry="3" style="stroke:#038048;stroke-width:1.0;"/><text fill="#000000" font-family="sans-serif" font-size="14" lengthAdjust="spacing" textLength="70" x="700.5" y="322.292">void add()</text><ellipse cx="691.5" cy="335.2422" fill="#84BE84" rx="3" ry="3" style="stroke:#038048;stroke-width:1.0;"/><text fill="#000000" font-family="sans-serif" font-size="14" lengthAdjust="spacing" textLength="99" x="700.5" y="338.5889">void remove()</text><ellipse cx="691.5" cy="351.5391" fill="#84BE84" rx="3" ry="3" style="stroke:#038048;stroke-width:1.0;"/><text fill="#000000" font-family="sans-serif" font-size="14" lengthAdjust="spacing" textLength="94" x="700.5" y="354.8857">void display()</text></g><!--class Wind--><g id="elem_Wind"><rect codeLine="37" fill="#F1F1F1" height="113.1875" id="Wind" rx="2.5" ry="2.5" style="stroke:#181818;stroke-width:0.5;" width="165" x="864.5" y="249"/><ellipse cx="924.75" cy="265" fill="#ADD1B2" rx="11" ry="11" style="stroke:#181818;stroke-width:1.0;"/><path d="M927.0938,260.6719 C926.1563,260.2344 925.5625,260.0938 924.6875,260.0938 C922.0625,260.0938 920.0625,262.1719 920.0625,264.8906 L920.0625,266.0156 C920.0625,268.5938 922.1719,270.4844 925.0625,270.4844 C926.2813,270.4844 927.4375,270.1875 928.1875,269.6406 C928.7656,269.2344 929.0938,268.7813 929.0938,268.3906 C929.0938,267.9375 928.7031,267.5469 928.2344,267.5469 C928.0156,267.5469 927.8125,267.625 927.625,267.8125 C927.1719,268.2969 927.1719,268.2969 926.9844,268.3906 C926.5625,268.6563 925.875,268.7813 925.1094,268.7813 C923.0625,268.7813 921.7656,267.6875 921.7656,265.9844 L921.7656,264.8906 C921.7656,263.1094 923.0156,261.7969 924.75,261.7969 C925.3281,261.7969 925.9375,261.9531 926.4063,262.2031 C926.8906,262.4844 927.0625,262.7031 927.1563,263.1094 C927.2188,263.5156 927.25,263.6406 927.3906,263.7656 C927.5313,263.9063 927.7656,264.0156 927.9844,264.0156 C928.25,264.0156 928.5156,263.875 928.6875,263.6563 C928.7969,263.5 928.8281,263.3125 928.8281,262.8906 L928.8281,261.4688 C928.8281,261.0313 928.8125,260.9063 928.7188,260.75 C928.5625,260.4844 928.2813,260.3438 927.9844,260.3438 C927.6875,260.3438 927.4844,260.4375 927.2656,260.75 L927.0938,260.6719 Z " fill="#000000"/><text fill="#000000" font-family="sans-serif" font-size="14" lengthAdjust="spacing" textLength="36" x="945.25" y="269.8467">Wind</text><line style="stroke:#181818;stroke-width:0.5;" x1="865.5" x2="1028.5" y1="281" y2="281"/><rect fill="none" height="6" style="stroke:#C82930;stroke-width:1.0;" width="6" x="872.5" y="291.6484"/><text fill="#000000" font-family="sans-serif" font-size="14" lengthAdjust="spacing" textLength="139" x="884.5" y="297.9951">double _windSpeed</text><line style="stroke:#181818;stroke-width:0.5;" x1="865.5" x2="1028.5" y1="305.2969" y2="305.2969"/><ellipse cx="875.5" cy="318.9453" fill="#84BE84" rx="3" ry="3" style="stroke:#038048;stroke-width:1.0;"/><text fill="#000000" font-family="sans-serif" font-size="14" lengthAdjust="spacing" textLength="70" x="884.5" y="322.292">void add()</text><ellipse cx="875.5" cy="335.2422" fill="#84BE84" rx="3" ry="3" style="stroke:#038048;stroke-width:1.0;"/><text fill="#000000" font-family="sans-serif" font-size="14" lengthAdjust="spacing" textLength="99" x="884.5" y="338.5889">void remove()</text><ellipse cx="875.5" cy="351.5391" fill="#84BE84" rx="3" ry="3" style="stroke:#038048;stroke-width:1.0;"/><text fill="#000000" font-family="sans-serif" font-size="14" lengthAdjust="spacing" textLength="94" x="884.5" y="354.8857">void display()</text></g><!--reverse link WeatherComponent to WeatherStation--><g id="link_WeatherComponent_WeatherStation"><path codeLine="17" d="M548.265,177.374 C501.329,196.668 445.293,219.702 393.894,240.83 " fill="none" id="WeatherComponent-backto-WeatherStation" style="stroke:#181818;stroke-width:1.0;"/><polygon fill="none" points="545.618,170.894,566.777,169.765,550.94,183.843,545.618,170.894" style="stroke:#181818;stroke-width:1.0;"/></g><!--reverse link WeatherComponent to Temperature--><g id="link_WeatherComponent_Temperature"><path codeLine="26" d="M617.316,198.591 C607.705,215.192 597.462,232.883 588.156,248.957 " fill="none" id="WeatherComponent-backto-Temperature" style="stroke:#181818;stroke-width:1.0;"/><polygon fill="none" points="611.344,194.934,627.423,181.133,623.46,201.949,611.344,194.934" style="stroke:#181818;stroke-width:1.0;"/></g><!--reverse link WeatherComponent to Humidity--><g id="link_WeatherComponent_Humidity"><path codeLine="35" d="M693.065,198.591 C702.773,215.192 713.119,232.883 722.519,248.957 " fill="none" id="WeatherComponent-backto-Humidity" style="stroke:#181818;stroke-width:1.0;"/><polygon fill="none" points="686.909,201.931,682.856,181.133,698.994,194.864,686.909,201.931" style="stroke:#181818;stroke-width:1.0;"/></g><!--reverse link WeatherComponent to Wind--><g id="link_WeatherComponent_Wind"><path codeLine="44" d="M760.337,191.1 C788.658,206.96 819.151,224.379 847,241 C852.651,244.373 858.452,247.894 864.277,251.475 " fill="none" id="WeatherComponent-backto-Wind" style="stroke:#181818;stroke-width:1.0;"/><polygon fill="none" points="756.62,197.041,742.561,181.188,763.438,184.814,756.62,197.041" style="stroke:#181818;stroke-width:1.0;"/></g><!--SRC=[pPCzRiCm38LtdOB8bA9m3o04NRfqwEO27Gt691e1rWz4Ea7GzEwraDGDlDbTl8cFWlY-9qbO8Q1dITXopGapQinWhJ6u5ytOAhGTYi26C6lJHf-YE6LhnsLpOjG3vwUomzgFQ_LIse63Rk3B03mUeoD0ekt3M6NsySXt0Zb97Pu7vTkOPMDhHNKnN8TMjMONFg4fYAL-SwAxgS5d-3rgb6IHutz4jBjKrMBMsLcziqyyt7IV-HOKnNxVCJJwrrbt1FS8i_bVU-_8wNa2VxZ9woOVpS__8YxG1FaqI7LYffK_-EBy1m00]--></g></svg>